<svg width="32" height="32" viewBox="0 0 32 32" fill="none" xmlns="http://www.w3.org/2000/svg">
<g clip-path="url(#clip0_287_12763)">
<path d="M18.6199 26.4829V11.3247C17.5884 11.3247 16.7524 10.4885 16.7524 9.45703H7.65974C7.65974 10.4885 6.82361 11.3247 5.79224 11.3247V26.4828C6.82367 26.4828 7.65974 27.319 7.65974 28.3505H16.7523C16.7523 27.319 17.5884 26.4829 18.6199 26.4829Z" fill="#FEDC33"/>
<path d="M27.4165 0H12.5818C11.2601 0 10.1848 1.07531 10.1848 2.39706V6.34419H4.58352C3.26184 6.34419 2.18652 7.4195 2.18652 8.74125V29.603C2.18652 30.9247 3.26177 32.0001 4.58352 32.0001H19.4181C20.7398 32.0001 21.8152 30.9248 21.8152 29.603V25.6558H27.4165C28.7382 25.6558 29.8135 24.5805 29.8135 23.2588V2.39706C29.8135 1.07531 28.7383 0 27.4165 0ZM20.5652 29.6029C20.5652 30.2354 20.0506 30.75 19.4181 30.75H4.58352C3.95109 30.75 3.43652 30.2354 3.43652 29.6029V8.74125C3.43652 8.10875 3.95102 7.59419 4.58352 7.59419H19.4181C20.0506 7.59419 20.5652 8.10875 20.5652 8.74125V29.6029ZM19.4181 6.34419H14.3421V5.94887C15.194 5.72437 15.8661 5.05219 16.0906 4.20025H23.9076C24.1321 5.05219 24.8043 5.72437 25.6562 5.94887V19.7069C24.8043 19.9314 24.1321 20.6036 23.9076 21.4555H21.8152V8.74125C21.8152 7.4195 20.7399 6.34419 19.4181 6.34419ZM28.5635 23.2588C28.5635 23.8913 28.049 24.4058 27.4165 24.4058H21.8152V22.7055H24.452C24.7971 22.7055 25.077 22.4257 25.077 22.0805C25.077 21.4165 25.6172 20.8762 26.2812 20.8762C26.6263 20.8762 26.9062 20.5964 26.9062 20.2512V5.4045C26.9062 5.05931 26.6263 4.7795 26.2812 4.7795C25.6172 4.7795 25.077 4.23925 25.077 3.57525C25.077 3.23006 24.7971 2.95025 24.452 2.95025H15.5463C15.2011 2.95025 14.9213 3.23006 14.9213 3.57525C14.9213 4.23925 14.3811 4.7795 13.7171 4.7795C13.372 4.7795 13.0921 5.05931 13.0921 5.4045V6.34419H11.4348V2.39706C11.4348 1.76456 11.9493 1.25 12.5818 1.25H27.4165C28.0489 1.25 28.5635 1.76456 28.5635 2.39706L28.5635 23.2588Z" fill="#171717"/>
<path d="M16.0883 18.5905L15.2338 18.2534C14.179 17.8374 13.3353 16.9937 12.9193 15.9388L12.5823 15.0842C12.4881 14.8455 12.2576 14.6885 12.0008 14.6885C11.7442 14.6885 11.5136 14.8454 11.4194 15.0842L11.0823 15.9387C10.6663 16.9937 9.8227 17.8373 8.76783 18.2534L7.91327 18.5904C7.67452 18.6846 7.51758 18.9152 7.51758 19.1719C7.51758 19.4285 7.67452 19.6591 7.91327 19.7532L8.76783 20.0904C9.8227 20.5064 10.6663 21.35 11.0823 22.405L11.4194 23.2595C11.5136 23.4983 11.7441 23.6552 12.0008 23.6552C12.2575 23.6552 12.4881 23.4983 12.5823 23.2595L12.9193 22.4049C13.3353 21.35 14.179 20.5064 15.2339 20.0902L16.0884 19.7532C16.3271 19.659 16.484 19.4284 16.484 19.1718C16.484 18.9152 16.3271 18.6847 16.0883 18.5905ZM12.0009 21.4147C11.497 20.4607 10.7121 19.6757 9.75814 19.1719C10.7121 18.6681 11.497 17.8832 12.0008 16.9292C12.5048 17.8832 13.2896 18.6681 14.2436 19.1719C13.2896 19.6757 12.5047 20.4606 12.0009 21.4147Z" fill="#171717"/>
</g>
<defs>
<clipPath id="clip0_287_12763">
<rect width="32" height="32" fill="white"/>
</clipPath>
</defs>
</svg>
