<svg width="32" height="32" viewBox="0 0 32 32" fill="none" xmlns="http://www.w3.org/2000/svg">
<g clip-path="url(#clip0_287_13003)">
<path d="M21.3638 12.2907L20.9109 12.7458L18.8278 14.8384C19.0618 15.7262 18.8347 16.7132 18.1464 17.4103C17.1186 18.4493 15.4528 18.4493 14.425 17.4103C13.3972 16.3706 13.3972 14.6853 14.425 13.6456C15.1139 12.9491 16.089 12.7195 16.9668 12.9567L19.0518 10.8616L19.4944 10.4169L19.4455 10.3675L19.392 10.332C18.2559 9.57752 16.9425 9.17871 15.5938 9.17871C13.819 9.17871 12.1602 9.8679 10.9231 11.1194C9.88596 12.1686 9.2383 13.5232 9.05879 14.9938C8.59968 14.9187 8.13782 14.8807 7.67896 14.8807C5.57362 14.8807 3.62903 15.675 2.2034 17.1172C-0.938431 20.2951 -0.690463 25.7168 2.75624 29.2032C4.51329 30.9805 6.87903 31.9998 9.24715 31.9998H9.24778C11.3538 31.9996 13.299 31.2052 14.7251 29.7629C16.4832 27.9843 17.2416 25.4358 16.8194 22.8306C18.2751 22.6482 19.6158 21.9922 20.6537 20.9422C21.7412 19.8422 22.4127 18.3746 22.5448 16.8098C22.6744 15.2731 22.2813 13.7086 21.4377 12.4049L21.3638 12.2907Z" fill="#FEDC33"/>
<path d="M31.8287 2.05012L30.1248 0.202153C29.922 -0.0177681 29.5922 -0.0639484 29.3369 0.0917219L25.1168 2.66439L24.5355 2.07635C24.2919 1.82995 23.8947 1.82769 23.6482 2.07126C23.4017 2.31484 23.3994 2.71214 23.6431 2.9586C23.7601 3.077 24.6873 4.01491 24.8335 4.16287L16.7606 12.2746C15.7485 12.1252 14.7102 12.4652 13.9788 13.2047C12.7123 14.4858 12.7123 16.5704 13.979 17.8518C14.5947 18.4744 15.414 18.8173 16.2858 18.8173C18.2862 18.8173 19.7969 17.0239 19.5086 15.044L27.5767 6.9377C28.9294 8.30598 28.6977 8.07163 28.76 8.13456C29.3398 8.72104 30.2356 7.8423 29.6524 7.2523L29.0957 6.68917L31.876 2.84296C32.0508 2.60108 32.031 2.26954 31.8287 2.05012ZM16.2858 17.5624C14.5122 17.5624 13.6038 15.3691 14.8711 14.0871C15.9606 12.9856 17.8242 13.4947 18.2212 14.9988C18.56 16.2848 17.6108 17.5624 16.2858 17.5624ZM19.0262 13.75C18.7793 13.3629 18.4625 13.0317 18.0463 12.7618L25.7159 5.05529L26.6946 6.04522L19.0262 13.75ZM28.2012 5.78445L26.0234 3.58147L29.551 1.43101L30.5585 2.52365L28.2012 5.78445Z" fill="#171717"/>
<path d="M24.3671 19.6991C23.9746 19.302 23.2935 19.5794 23.2935 20.1402V26.8632C21.6373 25.8909 19.5156 27.0918 19.5156 29.0578C19.5156 30.4576 20.6442 31.5965 22.0316 31.5965C23.4192 31.5965 24.5484 30.4576 24.5484 29.0579V21.6674L26.6232 23.7661C26.8669 24.0127 27.2641 24.0149 27.5105 23.7712C27.757 23.5276 27.7592 23.1303 27.5156 22.8839L24.3671 19.6991ZM22.0316 30.3415C21.3362 30.3415 20.7704 29.7656 20.7704 29.0577C20.7704 28.3502 21.3362 27.7746 22.0316 27.7746C22.7274 27.7746 23.2934 28.3502 23.2934 29.0577C23.2934 29.7656 22.7274 30.3415 22.0316 30.3415Z" fill="#171717"/>
<path d="M9.74684 18.3728C9.50307 18.1264 9.10596 18.1242 8.85943 18.3677C8.61297 18.6113 8.61071 19.0086 8.85435 19.2551L12.5751 23.0191C12.6979 23.1433 12.8596 23.2055 13.0214 23.2055C13.5755 23.2055 13.8585 22.5323 13.4676 22.1369L9.74684 18.3728Z" fill="#171717"/>
<path d="M7.42091 20.7258C7.17727 20.4794 6.77991 20.4772 6.53357 20.7208C6.28711 20.9644 6.28485 21.3617 6.52849 21.6081L10.2499 25.3722C10.3726 25.4963 10.5343 25.5585 10.6961 25.5585C11.2507 25.5585 11.5327 24.8849 11.1422 24.49L7.42091 20.7258Z" fill="#171717"/>
<path d="M5.09487 23.0784C4.85123 22.8319 4.45405 22.8297 4.20753 23.0733C3.96106 23.3169 3.95881 23.7142 4.20238 23.9607L7.92391 27.7254C8.04664 27.8495 8.20833 27.9117 8.37009 27.9117C8.92476 27.9117 9.20661 27.238 8.81633 26.8432L5.09487 23.0784Z" fill="#171717"/>
<path d="M7.54689 9.8628V2.47264L9.62174 4.57146C9.86544 4.81798 10.2626 4.82018 10.5091 4.57654C10.7555 4.3329 10.7578 3.93566 10.5142 3.6892L7.36562 0.504265C6.97265 0.106775 6.29199 0.3853 6.29199 0.945362V7.66811C4.63577 6.69594 2.51349 7.89694 2.51349 9.8628C2.51349 11.2626 3.64246 12.4015 5.03019 12.4015C6.41792 12.4015 7.54689 11.2626 7.54689 9.8628ZM3.76839 9.8628C3.76839 9.15529 4.33441 8.57967 5.03019 8.57967C5.72597 8.57967 6.29199 9.15529 6.29199 9.8628C6.29199 10.5706 5.72591 11.1466 5.03019 11.1466C4.33447 11.1466 3.76839 10.5706 3.76839 9.8628Z" fill="#171717"/>
</g>
<defs>
<clipPath id="clip0_287_13003">
<rect width="32" height="32" fill="white"/>
</clipPath>
</defs>
</svg>
