<svg width="32" height="32" viewBox="0 0 32 32" fill="none" xmlns="http://www.w3.org/2000/svg">
<path d="M31.6376 12.7173L16.2626 5.59881C16.0961 5.52175 15.9039 5.52175 15.7374 5.59881L0.362375 12.7173C0.141437 12.8197 0 13.041 0 13.2845C0 13.528 0.141437 13.7494 0.362375 13.8517L2.45175 14.8191V21.1051H2.25362C2.08712 21.1051 1.9275 21.1715 1.81019 21.2896L0.972313 22.1333C0.856063 22.2503 0.79075 22.4086 0.79075 22.5737V25.8341C0.79075 26.1793 1.07056 26.4591 1.41575 26.4591H4.73775C5.08294 26.4591 5.36275 26.1793 5.36275 25.8341V22.5737C5.36275 22.4087 5.2975 22.2504 5.18119 22.1333L4.34331 21.2896C4.226 21.1715 4.06637 21.1051 3.89987 21.1051H3.70175V15.3978L9.13469 17.9133C9.21969 17.9526 9.309 17.9713 9.39688 17.9713C9.63281 17.9713 9.85875 17.8369 9.96444 17.6087C10.1094 17.2954 9.97312 16.9239 9.65987 16.7789L2.1125 13.2846L16 6.85475L29.8874 13.2845L22.8777 16.5299C22.5644 16.6749 22.4281 17.0465 22.5731 17.3597C22.7181 17.6729 23.0898 17.8093 23.4028 17.6643L31.6376 13.8516C31.8586 13.7493 32 13.5279 32 13.2844C32 13.0409 31.8586 12.8197 31.6376 12.7173ZM4.11281 22.8313V25.2089H2.04075V22.8313L2.51375 22.355H3.63975L4.11281 22.8313Z" fill="#171717"/>
<path d="M16 12.8975C20.527 12.8975 24.1968 13.8266 24.1968 14.9729V23.7588C24.1968 22.6126 20.527 21.6833 16 21.6833C11.473 21.6833 7.8031 22.6125 7.8031 23.7588V14.9729C7.8031 13.8266 11.473 12.8975 16 12.8975Z" fill="#FEDC33"/>
<path d="M16 26.459C12.7235 26.459 7.17822 25.8902 7.17822 23.7585C7.17822 21.6269 12.7235 21.0581 16 21.0581C19.2767 21.0581 24.8218 21.6269 24.8218 23.7585C24.8218 25.8902 19.2767 26.459 16 26.459ZM8.43554 23.7585C8.52191 23.9047 9.04547 24.3176 10.5988 24.6788C12.0692 25.0207 13.9873 25.209 16 25.209C18.0127 25.209 19.9309 25.0207 21.4012 24.6788C22.9546 24.3176 23.4781 23.9047 23.5645 23.7585C23.4781 23.6124 22.9545 23.1995 21.4012 22.8383C19.9309 22.4964 18.0127 22.3081 16 22.3081C13.9873 22.3081 12.0692 22.4964 10.5988 22.8383C9.04547 23.1995 8.52197 23.6124 8.43554 23.7585Z" fill="#171717"/>
</svg>
