<svg width="32" height="32" viewBox="0 0 32 32" fill="none" xmlns="http://www.w3.org/2000/svg">
<path d="M16 26.3715C15.6548 26.3715 15.375 26.0917 15.375 25.7465V13.3115C15.375 12.9663 15.6548 12.6865 16 12.6865C16.3452 12.6865 16.625 12.9663 16.625 13.3115V25.7465C16.625 26.0917 16.3452 26.3715 16 26.3715Z" fill="#171717"/>
<path d="M11.3721 26.3715C11.0639 26.3715 10.7956 26.1435 10.7535 25.8296L9.50173 16.5056C9.45579 16.1635 9.69591 15.8489 10.038 15.803C10.3799 15.7571 10.6947 15.9971 10.7407 16.3393L11.9924 25.6633C12.0384 26.0054 11.7982 26.32 11.4561 26.3659C11.4279 26.3697 11.3998 26.3715 11.3721 26.3715Z" fill="#171717"/>
<path d="M20.6279 26.3716C20.6002 26.3716 20.5722 26.3698 20.544 26.3659C20.2019 26.32 19.9618 26.0054 20.0077 25.6633L21.2594 16.3393C21.3054 15.9972 21.6197 15.757 21.9621 15.803C22.3042 15.8489 22.5443 16.1635 22.4984 16.5056L21.2466 25.8296C21.2044 26.1435 20.9361 26.3716 20.6279 26.3716Z" fill="#171717"/>
<path fill-rule="evenodd" clip-rule="evenodd" d="M7.42762 31.375H24.5725H24.5778C25.0359 31.3715 25.4087 30.9976 25.4087 30.5406V25.7466H20.6271H16.0001H11.3729H6.59131V30.5406C6.59131 30.9976 6.96418 31.3715 7.42225 31.375H7.42762Z" fill="#FEDC33"/>
<path d="M23.351 4.6375C22.0415 1.89781 19.2389 0 16 0C12.7612 0 9.95842 1.89794 8.64898 4.63769C4.5701 5.09456 1.42798 8.56812 1.42798 12.7074C1.42798 15.4058 2.77535 17.9273 5.03235 19.4526C5.5896 19.8289 5.77454 19.9995 5.85685 20.2129C5.96585 20.4953 5.96535 21.0106 5.96454 21.8652L5.96629 30.5406C5.96629 31.3453 6.62179 32 7.42754 32H24.5724C25.3782 32 26.0337 31.3453 26.0337 30.5406L26.0354 21.8644C26.0346 21.0106 26.0341 20.4953 26.1431 20.2129C26.2254 19.9995 26.4104 19.829 26.9677 19.4525C29.2246 17.9273 30.572 15.4058 30.572 12.7074C30.5721 8.56756 27.4299 5.09362 23.351 4.6375ZM26.2681 18.4167C24.8288 19.3889 24.7837 19.8072 24.7855 21.8647L24.7838 25.7463V25.7464V25.7465V30.5405C24.7838 30.654 24.687 30.7499 24.5725 30.7499H7.4276C7.31304 30.7499 7.21635 30.654 7.21635 30.5405V25.7464C7.21635 25.7463 7.2146 21.8655 7.2146 21.8655C7.21648 19.8072 7.17135 19.3889 5.73217 18.4168C3.81973 17.1244 2.67804 14.99 2.67804 12.7074C2.67804 9.42519 5.01354 6.63781 8.14817 5.98244C7.96129 6.66456 7.86092 7.38194 7.86092 8.12244C7.86092 8.46762 8.14073 8.74744 8.48592 8.74744C8.8311 8.74744 9.11092 8.46762 9.11092 8.12244C9.11085 4.333 12.2014 1.25 16 1.25C19.7987 1.25 22.8892 4.333 22.8892 8.1225C22.8892 8.46769 23.169 8.7475 23.5142 8.7475C23.8594 8.7475 24.1392 8.46769 24.1392 8.1225C24.1392 7.38194 24.0389 6.66444 23.8519 5.98219C26.9865 6.637 29.3222 9.42469 29.3222 12.7074C29.3221 14.9901 28.1804 17.1244 26.2681 18.4167Z" fill="#171717"/>
<path d="M18.8197 29.1851H13.1804C12.8352 29.1851 12.5554 28.9052 12.5554 28.5601C12.5554 28.2149 12.8352 27.9351 13.1804 27.9351H18.8197C19.1649 27.9351 19.4447 28.2149 19.4447 28.5601C19.4447 28.9052 19.1649 29.1851 18.8197 29.1851Z" fill="#171717"/>
</svg>
