<svg width="14" height="14" viewBox="0 0 14 14" fill="none" xmlns="http://www.w3.org/2000/svg">
<g clip-path="url(#clip0_276_10488)">
<path d="M13.1601 7.46539C13.1076 6.9615 12.9958 6.46442 12.8292 5.98549C12.48 4.96863 11.882 4.01305 11.0968 3.22317C11.0375 3.15735 10.9713 3.09379 10.8983 3.02797C10.8549 2.98711 10.8116 2.94626 10.7659 2.9054C10.4487 2.61941 10.0995 2.35611 9.71602 2.11779C9.66809 2.09055 9.62016 2.06104 9.56766 2.03154C8.45844 1.37103 7.20999 1.02148 5.96382 1.02148C5.86568 1.02148 5.76982 1.02375 5.67168 1.02829C4.08087 1.09639 2.6407 1.74554 1.61364 2.85774C0.486152 4.07434 -0.0342264 5.70177 0.150645 7.44269C0.527234 10.9949 3.75449 13.8866 7.34693 13.8866C9.45583 13.8866 11.3342 12.8697 12.3681 11.1651L12.4024 11.1107C13.0369 10.037 13.2993 8.77959 13.1601 7.46539Z" fill="#D45102"/>
<path d="M13.2742 7.45376C13.2194 6.93625 13.1053 6.43236 12.9364 5.94889C12.5758 4.89345 11.9664 3.9356 11.1813 3.14572C11.1174 3.07762 11.0489 3.00953 10.9781 2.94825C10.9348 2.90512 10.8891 2.862 10.8435 2.82114C10.5148 2.52607 10.1588 2.2605 9.78447 2.02672C9.73198 1.99494 9.67948 1.96316 9.62699 1.93366C8.53146 1.28223 7.27159 0.907715 5.9638 0.907715C5.86338 0.907715 5.76523 0.909985 5.66709 0.914524C3.98956 0.987157 2.54026 1.68625 1.52917 2.78028C0.429075 3.96738 -0.157492 5.62205 0.0365088 7.45376C0.419945 11.0695 3.69285 13.9998 7.34691 13.9998C9.58362 13.9998 11.446 12.9035 12.4662 11.2239C12.4685 11.2239 12.4685 11.2216 12.4685 11.2216C13.1144 10.1571 13.4226 8.85648 13.2742 7.45376ZM12.4023 11.1104L12.3681 11.1648C11.3342 12.8695 9.45581 13.8863 7.34691 13.8863C3.75447 13.8863 0.527216 10.9946 0.150627 7.44241C-0.0342443 5.70149 0.486134 4.07406 1.61362 2.85746C2.64068 1.74526 4.08085 1.09611 5.67166 1.02801C5.7698 1.02347 5.86566 1.0212 5.9638 1.0212C7.20997 1.0212 8.45842 1.37075 9.56765 2.03126C9.62014 2.06076 9.66807 2.09027 9.716 2.11751C10.0994 2.35583 10.4486 2.61913 10.7659 2.90512C10.8115 2.94598 10.8549 2.98683 10.8983 3.02769C10.9713 3.09351 11.0375 3.15707 11.0968 3.22289C11.882 4.01277 12.4799 4.96835 12.8291 5.98521C12.9958 6.46414 13.1076 6.96122 13.1601 7.46511C13.2993 8.77931 13.0368 10.0368 12.4023 11.1104Z" fill="black"/>
<path d="M12.4024 11.1107L12.3681 11.1651C11.3342 12.8697 9.45583 13.8866 7.34693 13.8866C3.75449 13.8866 0.527234 10.9949 0.150645 7.44269C-0.0342264 5.70177 0.486152 4.07434 1.61364 2.85774C2.6407 1.74554 4.08087 1.09639 5.67168 1.02829C5.76982 1.02375 5.86568 1.02148 5.96382 1.02148C7.20999 1.02148 8.45844 1.37103 9.56766 2.03154C9.62016 2.06104 9.66809 2.09055 9.71602 2.11779C10.0995 2.35611 10.4487 2.61941 10.7659 2.9054C10.8116 2.94626 10.8549 2.98711 10.8983 3.02797C10.9713 3.09379 11.0375 3.15735 11.0968 3.22317C11.882 4.01305 12.48 4.96863 12.8292 5.98549C12.9958 6.46442 13.1076 6.9615 13.1601 7.46539C13.2993 8.77959 13.0369 10.037 12.4024 11.1107Z" fill="#D45102"/>
<path d="M13.5435 9.23098C13.5139 9.31497 13.4842 9.39668 13.45 9.47385L13.4408 9.49655C13.3883 9.62139 13.329 9.75076 13.2651 9.87787C13.2012 10.0004 13.1327 10.1207 13.0642 10.241C13.0186 10.3205 12.9684 10.3954 12.9159 10.4703C12.8223 10.6156 12.7173 10.7563 12.5895 10.9084C12.5256 10.9901 12.4594 11.0672 12.3887 11.1399L12.327 11.2057C12.2905 11.2443 12.254 11.2806 12.2175 11.3192C11.1356 12.3882 9.64982 12.9784 8.03391 12.9784H7.99511C6.70558 12.9716 5.41833 12.5903 4.27486 11.8775C4.06945 11.7482 3.89371 11.6279 3.73394 11.5053C3.60385 11.4054 3.47375 11.301 3.34822 11.1966C3.21128 11.0809 3.0926 10.9719 2.98533 10.8652C2.91001 10.7881 2.83241 10.7086 2.75481 10.6292L2.67493 10.5429L2.6521 10.5157C1.97881 9.77346 1.47897 8.93364 1.16401 8.01438L1.10695 7.8328C1.07271 7.72158 1.04076 7.6149 1.01337 7.51049C0.985982 7.40154 0.960876 7.29486 0.938052 7.18591C0.890123 6.95213 0.855887 6.73877 0.835346 6.52768C0.81024 6.29843 0.798828 6.0601 0.798828 5.81951C0.798828 5.72191 0.80111 5.62658 0.807958 5.53124C0.807958 5.50401 0.807958 5.48131 0.812522 5.46088C0.817087 5.37917 0.823934 5.30427 0.833064 5.22936C0.839911 5.12949 0.853605 5.0387 0.867299 4.94564C0.878711 4.85712 0.894687 4.77087 0.912946 4.68462C0.919793 4.64603 0.928923 4.60971 0.938052 4.5734C1.07043 3.95602 1.30095 3.37268 1.62733 2.83929C2.54483 1.32307 4.12423 0.344799 5.95925 0.151868C6.17151 0.1269 6.40202 0.113281 6.64852 0.113281C8.40594 0.113281 10.1246 0.794215 11.4871 2.03124C12.2859 2.7553 12.9227 3.64279 13.329 4.59837C13.6006 5.22936 13.774 5.88987 13.8448 6.55718C13.9429 7.48779 13.8425 8.3889 13.5435 9.23098Z" fill="#FFDF0E"/>
<path d="M13.5435 9.23098C13.5139 9.31497 13.4842 9.39668 13.45 9.47385L13.4408 9.49655C13.3883 9.62139 13.329 9.75076 13.2651 9.87787C13.2012 10.0004 13.1327 10.1207 13.0642 10.241C13.0186 10.3205 12.9684 10.3954 12.9159 10.4703C12.8223 10.6156 12.7173 10.7563 12.5895 10.9084C12.5256 10.9901 12.4594 11.0672 12.3887 11.1399L12.327 11.2057C12.2905 11.2443 12.254 11.2806 12.2175 11.3192C11.1356 12.3882 9.64982 12.9784 8.03391 12.9784H7.99511C6.70558 12.9716 5.41833 12.5903 4.27486 11.8775C4.06945 11.7482 3.89371 11.6279 3.73394 11.5053C3.60385 11.4054 3.47375 11.301 3.34822 11.1966C3.21128 11.0809 3.0926 10.9719 2.98533 10.8652C2.91001 10.7881 2.83241 10.7086 2.75481 10.6292L2.67493 10.5429L2.6521 10.5157C1.97881 9.77346 1.47897 8.93364 1.16401 8.01438L1.10695 7.8328C1.07271 7.72158 1.04076 7.6149 1.01337 7.51049C0.985982 7.40154 0.960876 7.29486 0.938052 7.18591C0.890123 6.95213 0.855887 6.73877 0.835346 6.52768C0.81024 6.29843 0.798828 6.0601 0.798828 5.81951C0.798828 5.72191 0.80111 5.62658 0.807958 5.53124C0.807958 5.50401 0.807958 5.48131 0.812522 5.46088C0.817087 5.37917 0.823934 5.30427 0.833064 5.22936C0.839911 5.12949 0.853605 5.0387 0.867299 4.94564C0.878711 4.85712 0.894687 4.77087 0.912946 4.68462C0.919793 4.64603 0.928923 4.60971 0.938052 4.5734C1.07043 3.95602 1.30095 3.37268 1.62733 2.83929C2.54483 1.32307 4.12423 0.344799 5.95925 0.151868C6.17151 0.1269 6.40202 0.113281 6.64852 0.113281C8.40594 0.113281 10.1246 0.794215 11.4871 2.03124C12.2859 2.7553 12.9227 3.64279 13.329 4.59837C13.6006 5.22936 13.774 5.88987 13.8448 6.55718C13.9429 7.48779 13.8425 8.3889 13.5435 9.23098Z" fill="#FFDF0E"/>
<path d="M11.5784 10.339C10.6997 11.3105 9.43986 11.8439 8.03392 11.8439C5.00523 11.8439 2.28694 9.40839 1.96969 6.41455C1.82362 5.02318 2.22532 3.72259 3.10403 2.75113C3.98273 1.78193 5.2426 1.24854 6.64853 1.24854C9.67494 1.24854 12.3955 3.68401 12.7105 6.67558C12.8588 8.06922 12.4549 9.36981 11.5784 10.339Z" fill="#FFDF0E"/>
<path d="M13.5481 9.53534C13.5481 9.53534 13.5481 9.53761 13.5458 9.53988C13.4385 9.80317 13.3084 10.0574 13.1624 10.298C13.1144 10.3797 13.0642 10.4591 13.0094 10.5363C12.909 10.6907 12.7972 10.8382 12.6785 10.9812C12.6123 11.0652 12.5416 11.1446 12.4685 11.2218C12.4685 11.2218 12.4685 11.2241 12.4662 11.2241C12.4092 11.2831 12.3544 11.3421 12.2973 11.3988C11.2338 12.452 9.74338 13.0921 8.03389 13.0921H7.99509C6.63709 13.0853 5.33386 12.6722 4.21322 11.9731C4.02607 11.8551 3.8412 11.7279 3.66546 11.5963C3.39842 11.3943 3.14508 11.1787 2.90543 10.9449C2.82783 10.8677 2.75023 10.7883 2.67263 10.7065C2.63611 10.668 2.60188 10.6294 2.56764 10.5908C1.85783 9.80544 1.31234 8.87483 0.995093 7.86024C0.96314 7.75356 0.931187 7.64461 0.903799 7.53793C0.874128 7.42898 0.849022 7.32003 0.826199 7.20881C0.780552 6.98864 0.744034 6.7662 0.72121 6.53923C0.696104 6.29636 0.684692 6.05576 0.684692 5.81971C0.684692 5.71984 0.686975 5.62224 0.693822 5.52464C0.693822 5.49967 0.693822 5.47243 0.698387 5.44973C0.702951 5.37029 0.709798 5.29312 0.718928 5.21595C0.725775 5.11834 0.739469 5.02301 0.755446 4.92768C0.766857 4.83916 0.782834 4.75064 0.801093 4.66212C0.805657 4.62126 0.814787 4.58041 0.823916 4.53955C0.823916 4.54182 0.823916 4.54409 0.823916 4.54636C1.08639 5.15239 1.42874 5.71984 1.83957 6.23281C1.88065 6.28501 1.92173 6.33722 1.9651 6.38715C2.40331 6.9092 2.90999 7.37451 3.47145 7.76264C4.17899 8.25745 4.97325 8.63196 5.81316 8.8544C6.39288 9.01102 6.99542 9.09273 7.60937 9.09273C8.16171 9.09273 8.68893 9.02691 9.18649 8.90207H9.18877C9.24354 8.88618 9.29604 8.87256 9.34853 8.85667C10.7659 8.45946 11.9276 7.58106 12.6739 6.40531C12.7036 6.35764 12.7333 6.30771 12.7629 6.25777C12.8223 6.1579 12.8793 6.05349 12.9341 5.94908C13.1555 5.51556 13.3244 5.04798 13.4317 4.55544C13.4317 4.5509 13.4317 4.54409 13.4362 4.53955C13.7056 5.17055 13.8881 5.8424 13.9612 6.53923C14.0753 7.61964 13.9201 8.6365 13.5458 9.53534H13.5481Z" fill="#FEBC00"/>
<path fill-rule="evenodd" clip-rule="evenodd" d="M11.5647 1.94747L11.1813 3.14591V3.15272L11.1379 3.27756L9.57219 8.16667L9.38732 8.74319L9.3508 8.85668L8.39906 11.8301L8.36026 11.9459L7.99508 13.0921C6.63708 13.0853 5.33385 12.6722 4.21321 11.9731C4.02606 11.8551 3.84118 11.7302 3.66544 11.5963C3.53307 11.4942 3.40069 11.3898 3.27516 11.2831C3.14735 11.1741 3.0241 11.0629 2.90542 10.9449C2.82782 10.8677 2.75022 10.7883 2.67262 10.7065C2.6361 10.668 2.60414 10.6316 2.56763 10.5931L2.98073 9.3061L3.02182 9.17218L3.47372 7.76265L5.521 1.37095L5.56208 1.24384L5.66707 0.914721L5.9478 0.0385863C6.17604 0.0113489 6.41112 0 6.64849 0C8.49263 0 10.2386 0.744488 11.5647 1.94747Z" fill="white"/>
<path d="M13.9589 6.54604C13.8859 5.85149 13.7056 5.18418 13.434 4.55545C13.0117 3.56128 12.3635 2.67153 11.5647 1.94747C10.2387 0.744488 8.49265 0 6.6485 0C6.41114 0 6.17605 0.0113489 5.94782 0.0385863C4.02379 0.240597 2.43983 1.27789 1.52917 2.78048C1.20279 3.31615 0.96314 3.90856 0.826199 4.54637C0.817069 4.58495 0.80794 4.62354 0.801093 4.66213C0.782834 4.75065 0.766857 4.83917 0.755446 4.92769C0.739469 5.02302 0.725775 5.11835 0.718928 5.21595C0.709798 5.29313 0.702951 5.3703 0.698387 5.44974C0.696104 5.47244 0.693822 5.49968 0.693822 5.52464C0.686975 5.62224 0.684692 5.71984 0.684692 5.81971C0.684692 6.05577 0.696104 6.29637 0.72121 6.53924C0.744034 6.76621 0.780552 6.98865 0.826199 7.20882C0.849022 7.32004 0.874128 7.42899 0.903799 7.53794C0.931187 7.64462 0.96314 7.75357 0.995093 7.86025C1.01563 7.9238 1.03618 7.98735 1.05672 8.05091C1.37853 8.99287 1.89891 9.85538 2.56764 10.5908C2.60416 10.6316 2.63611 10.668 2.67263 10.7065C2.75023 10.7883 2.82783 10.8677 2.90543 10.9449C3.02411 11.0629 3.14736 11.1741 3.27517 11.2831C3.4007 11.3898 3.53308 11.4942 3.66546 11.5963C3.8412 11.7302 4.02607 11.8551 4.21322 11.9731C5.33386 12.6722 6.63709 13.0853 7.99509 13.0921H8.03389C9.74338 13.0921 11.2338 12.452 12.2973 11.3988C12.3544 11.3421 12.4092 11.2831 12.4662 11.2241C12.4685 11.2241 12.4685 11.2218 12.4685 11.2218C12.5416 11.1446 12.6123 11.0652 12.6785 10.9812C12.7972 10.8382 12.909 10.6907 13.0094 10.5363C13.0642 10.4591 13.1144 10.3797 13.1624 10.298C13.2331 10.1777 13.3016 10.0551 13.3678 9.92802C13.4317 9.80091 13.491 9.67153 13.5458 9.53988C13.5481 9.53761 13.5481 9.53534 13.5481 9.53534C13.5846 9.44909 13.6188 9.36057 13.6508 9.26978C13.9452 8.43904 14.0616 7.51751 13.9589 6.54604ZM13.5435 9.23119C13.5138 9.31518 13.4842 9.39689 13.4499 9.47406L13.4408 9.49676C13.3883 9.6216 13.329 9.75097 13.2651 9.87808C13.2012 10.0006 13.1327 10.1209 13.0642 10.2412C13.0186 10.3207 12.9684 10.3956 12.9159 10.4705C12.8223 10.6158 12.7173 10.7565 12.5895 10.9086C12.5256 10.9903 12.4594 11.0674 12.3886 11.1401L12.327 11.2059C12.2905 11.2445 12.254 11.2808 12.2175 11.3194C11.1356 12.3885 9.64981 12.9786 8.03389 12.9786H7.99509C6.70556 12.9718 5.41831 12.5905 4.27485 11.8778C4.06943 11.7484 3.89369 11.6281 3.73393 11.5055C3.60383 11.4056 3.47374 11.3012 3.34821 11.1968C3.21127 11.0811 3.09258 10.9721 2.98531 10.8654C2.90999 10.7883 2.83239 10.7088 2.75479 10.6294L2.67491 10.5431L2.65209 10.5159C1.97879 9.77367 1.47895 8.93385 1.16399 8.01459L1.10693 7.83301C1.07269 7.72179 1.04074 7.61511 1.01335 7.5107C0.985964 7.40175 0.960858 7.29507 0.938034 7.18612C0.890105 6.95233 0.855869 6.73898 0.835328 6.52789C0.810222 6.29864 0.79881 6.06031 0.79881 5.81971C0.79881 5.72211 0.801093 5.62678 0.80794 5.53145C0.80794 5.50422 0.80794 5.48152 0.812505 5.46109C0.817069 5.37938 0.823916 5.30448 0.833046 5.22957C0.839893 5.1297 0.853587 5.03891 0.867281 4.94585C0.878693 4.85733 0.89467 4.77108 0.912928 4.68482C0.919776 4.64624 0.928905 4.60992 0.938034 4.57361C1.07041 3.95623 1.30093 3.37289 1.62731 2.83949C2.54482 1.32328 4.12421 0.345006 5.95923 0.152075C6.17149 0.127108 6.40201 0.113489 6.6485 0.113489C8.40592 0.113489 10.1245 0.794423 11.4871 2.03145C12.2859 2.75551 12.9227 3.643 13.329 4.59857C13.6006 5.22957 13.774 5.89008 13.8448 6.55739C13.9429 7.488 13.8425 8.3891 13.5435 9.23119Z" fill="black"/>
<path d="M9.67495 8.25041L8.84189 7.55813L8.7506 7.48095L8.67756 7.57629C8.39455 7.94626 8.02252 8.13011 7.54551 8.13011C7.24652 8.13011 6.97492 8.06656 6.73071 7.94172C6.48421 7.81007 6.28336 7.63076 6.12816 7.40151C5.97525 7.17226 5.88395 6.90897 5.852 6.6139C5.82233 6.31656 5.85885 6.06007 5.95927 5.83536C6.06426 5.61066 6.22174 5.43815 6.43628 5.31558H6.43856C6.65082 5.18621 6.90417 5.12038 7.20316 5.12038C7.68245 5.12038 8.10241 5.30424 8.46987 5.67875L8.55203 5.76273L8.6342 5.67875L9.3189 4.98647L9.3965 4.90702L9.32119 4.82758C9.03589 4.52797 8.6981 4.29645 8.30554 4.13757C7.91982 3.97641 7.49758 3.89697 7.04111 3.89697C6.49791 3.89697 6.01405 4.015 5.59637 4.25106C5.18098 4.48485 4.86602 4.81169 4.65604 5.2316C4.49171 5.56072 4.40955 5.92389 4.40955 6.31656C4.40955 6.42097 4.41639 6.52765 4.4278 6.6366C4.48258 7.15638 4.65604 7.62622 4.94818 8.04159H4.95047C5.24489 8.45242 5.62376 8.77473 6.08252 9.00852C6.54584 9.24003 7.04796 9.35352 7.58659 9.35352C8.04306 9.35352 8.45161 9.27408 8.81222 9.11293C9.17512 8.95177 9.46954 8.71344 9.69321 8.40475L9.75484 8.3185L9.67495 8.25041ZM9.60192 8.33893C9.38966 8.62946 9.10893 8.85644 8.76657 9.00852C8.42422 9.16286 8.02709 9.24003 7.58659 9.24003C7.06621 9.24003 6.57779 9.12881 6.13273 8.90865C5.69223 8.68394 5.32705 8.36844 5.04176 7.97577C4.76331 7.57855 4.59442 7.1246 4.54192 6.62525C4.48943 6.12817 4.56246 5.67421 4.75646 5.28154C4.95731 4.88433 5.25858 4.5711 5.65115 4.35093C6.05056 4.12395 6.51617 4.01046 7.04111 4.01046C7.4816 4.01046 7.89243 4.08763 8.26217 4.24198C8.63648 4.39632 8.96514 4.61876 9.23902 4.90702L8.55203 5.59931C8.16631 5.20664 7.71212 5.00689 7.20316 5.00689C6.88819 5.00689 6.61202 5.07726 6.37922 5.21798C6.14642 5.3519 5.97068 5.54256 5.85656 5.7877C5.74473 6.03284 5.70593 6.31429 5.74016 6.62525C5.77212 6.93621 5.87026 7.21766 6.0323 7.4628C6.19892 7.70793 6.41574 7.90313 6.67593 8.04159C6.94068 8.17551 7.23054 8.2436 7.54551 8.2436C8.05448 8.2436 8.4653 8.04159 8.76885 7.64438L9.60192 8.33666V8.33893Z" fill="black"/>
<path d="M9.60189 8.33694C9.38963 8.62974 9.1089 8.85672 8.76655 9.0088C8.42419 9.16314 8.02706 9.24031 7.58657 9.24031C7.06619 9.24031 6.57776 9.1291 6.1327 8.90893C5.69221 8.68422 5.32703 8.36872 5.04173 7.97605C4.76329 7.57884 4.59439 7.12488 4.5419 6.62553C4.4894 6.12845 4.56244 5.67449 4.75644 5.28182C4.95729 4.88461 5.25856 4.57138 5.65112 4.35121C6.05054 4.12423 6.51614 4.01074 7.04108 4.01074C7.48158 4.01074 7.8924 4.08791 8.26215 4.24226C8.63645 4.3966 8.96511 4.61904 9.239 4.90731L8.552 5.59959C8.16629 5.20692 7.7121 5.00718 7.20313 5.00718C6.88816 5.00718 6.612 5.07754 6.3792 5.21826C6.1464 5.35218 5.97065 5.54284 5.85654 5.78798C5.7447 6.03312 5.7059 6.31457 5.74014 6.62553C5.77209 6.93649 5.87023 7.21794 6.03228 7.46308C6.19889 7.70821 6.41571 7.90341 6.6759 8.04187C6.94066 8.17579 7.23052 8.24388 7.54548 8.24388C8.05445 8.24388 8.46527 8.04187 8.76883 7.64466L9.60189 8.33694Z" fill="#D45102"/>
<path d="M12.8246 6.66395C12.5028 3.61563 9.73197 1.13477 6.6485 1.13477C5.20833 1.13477 3.9188 1.68178 3.01955 2.67595C2.1203 3.67011 1.70719 5.00247 1.85783 6.42789C2.17964 9.4762 4.95043 11.9571 8.0339 11.9571C9.47407 11.9571 10.7613 11.4101 11.6629 10.4159C12.5621 9.42173 12.9752 8.08937 12.8246 6.66395ZM11.5784 10.3387C10.6997 11.3102 9.43983 11.8436 8.0339 11.8436C5.0052 11.8436 2.28691 9.40811 1.96967 6.41427C1.82359 5.0229 2.22529 3.72231 3.104 2.75085C3.98271 1.78165 5.24257 1.24825 6.6485 1.24825C9.67491 1.24825 12.3955 3.68373 12.7105 6.6753C12.8588 8.06894 12.4548 9.36952 11.5784 10.3387Z" fill="black"/>
</g>
<defs>
<clipPath id="clip0_276_10488">
<rect width="14" height="14" fill="white"/>
</clipPath>
</defs>
</svg>
