<svg width="170" height="23" viewBox="0 0 170 23" fill="none" xmlns="http://www.w3.org/2000/svg">
<path d="M3.23869 7.26475L10.3765 14.0041C10.9191 14.5164 11.0813 15.2867 10.7878 15.956C10.4941 16.6253 9.80243 17.0616 9.03506 17.0616H3.7944V21.0468C3.7944 22.0361 2.945 22.838 1.89739 22.838C0.849768 22.838 0.000356808 22.036 0.000356808 21.0468V15.2703C0.000356808 14.2811 0.849768 13.4792 1.89739 13.4792H4.45534L0.556247 9.79782C-0.184802 9.09838 -0.184802 7.96431 0.556247 7.26483C1.29706 6.56539 2.49785 6.56531 3.23869 7.26475ZM17.1923 0.000832872C18.2402 0.000832872 19.0897 0.802816 19.0897 1.79194C19.0897 2.78106 18.2402 3.58304 17.1926 3.58304H6.47737L10.3765 7.26442C11.1176 7.96387 11.1176 9.09794 10.3765 9.79742C10.006 10.1471 9.52062 10.322 9.03498 10.322C8.54934 10.322 8.06392 10.1471 7.69351 9.79742L0.555642 3.05811C0.0130727 2.54583 -0.149124 1.77546 0.144448 1.10616C0.43802 0.436863 1.12976 0.000587854 1.89713 0.000587854L17.1923 0.000832872ZM24.2552 6.04622C25.3029 6.04622 26.1523 6.8482 26.1523 7.83732C26.1523 8.82643 25.3028 9.62842 24.2552 9.62842C21.444 9.62842 19.1568 11.7878 19.1568 14.4422V21.0471C19.1568 22.0363 18.3074 22.8382 17.2597 22.8382C16.2121 22.8382 15.3627 22.0363 15.3627 21.0471V7.83732C15.3627 6.84814 16.2121 6.04622 17.2597 6.04622C18.2161 6.04622 19.0048 6.71499 19.1357 7.58366C20.5844 6.61666 22.3501 6.04622 24.2552 6.04622ZM34.7459 6.04622C39.6495 6.04622 43.6385 9.81243 43.6385 14.4422C43.6385 15.4314 42.789 16.2333 41.7414 16.2333H30.0137C30.7678 18.0033 32.6048 19.2559 34.7463 19.2559C36.1081 19.2559 37.3884 18.7553 38.3513 17.8461C39.0923 17.1466 40.2932 17.1468 41.0343 17.8461C41.7753 18.5457 41.775 19.6797 41.0343 20.3792C39.3543 21.965 37.1213 22.8382 34.7461 22.8382C29.8425 22.8382 25.8536 19.072 25.8536 14.4422C25.8536 9.81243 29.8423 6.04622 34.7459 6.04622ZM30.0133 12.6511H39.4786C38.7245 10.8812 36.8875 9.62851 34.7461 9.62851C32.6047 9.62851 30.7673 10.8812 30.0133 12.6511ZM57.1309 12.6511C60.1055 12.6511 62.5259 14.9361 62.5259 17.7449C62.5259 20.5535 60.1057 22.8385 57.1309 22.8385H50.1355C49.0878 22.8385 48.2384 22.0366 48.2384 21.0474C48.2384 20.0583 49.0878 19.2563 50.1355 19.2563H57.1309C58.0135 19.2563 58.7316 18.5784 58.7316 17.7451C58.7316 16.9117 58.0135 16.2338 57.1309 16.2338H50.1355C47.1609 16.2338 44.7405 13.9488 44.7405 11.1401C44.7405 8.33142 47.1607 6.04638 50.1355 6.04638H57.1309C58.1786 6.04638 59.028 6.84836 59.028 7.83748C59.028 8.8266 58.1785 9.62859 57.1309 9.62859H50.1355C49.2529 9.62859 48.5349 10.3065 48.5349 11.1399C48.5349 11.9731 49.2529 12.6511 50.1355 12.6511H57.1309ZM72.4973 6.09107C77.3877 6.09107 81.3664 9.8475 81.3664 14.4651V21.0476C81.3664 22.0368 80.517 22.8387 79.4694 22.8387C78.4218 22.8387 77.5724 22.0367 77.5724 21.0476V14.4651C77.5724 11.8231 75.2959 9.67377 72.4978 9.67377C69.6997 9.67377 67.4231 11.8232 67.4231 14.4651V21.0476C67.4231 22.0368 66.5737 22.8387 65.5261 22.8387C64.4785 22.8387 63.6291 22.0367 63.6291 21.0476V1.79243C63.6291 0.80324 64.4785 0.00132213 65.5261 0.00132213C66.5737 0.00132213 67.4231 0.803305 67.4231 1.79243V7.60339C68.862 6.65181 70.6109 6.09107 72.4973 6.09107ZM111.093 16.2323V16.2337V21.0469C111.093 22.0362 110.244 22.8381 109.197 22.8381C108.149 22.8381 107.3 22.0361 107.3 21.0469V16.975L95.7984 6.11582V21.0465C95.7984 22.0358 94.949 22.8377 93.9014 22.8377C92.8538 22.8377 92.0043 22.0357 92.0043 21.0465V1.79139C92.0043 1.06686 92.4666 0.413734 93.1754 0.136586C93.8846 -0.140375 94.7004 0.012554 95.2428 0.524821L101.548 6.47885L107.855 0.524821C108.397 0.0125458 109.213 -0.141052 109.922 0.136586C110.631 0.413766 111.093 1.06688 111.093 1.79139V16.2323ZM104.232 9.01263L107.3 11.9089V6.11603L104.232 9.01263ZM128.438 6.04622C129.486 6.04622 130.335 6.8482 130.335 7.83732V21.0471C130.335 22.0363 129.486 22.8382 128.438 22.8382C127.481 22.8382 126.692 22.1696 126.562 21.3007C125.114 22.2677 123.347 22.8382 121.442 22.8382C116.539 22.8382 112.55 19.072 112.55 14.4422C112.55 9.81243 116.539 6.04622 121.442 6.04622C123.347 6.04622 125.114 6.61669 126.562 7.58366C126.692 6.71469 127.481 6.04622 128.438 6.04622ZM121.442 19.256C124.254 19.256 126.541 17.0966 126.541 14.4422C126.541 11.7878 124.254 9.62842 121.442 9.62842C118.631 9.62842 116.343 11.7878 116.343 14.4422C116.343 17.0966 118.631 19.256 121.442 19.256ZM138.677 6.04622C142.477 6.04622 145.57 8.9663 145.57 12.5552V21.0474C145.57 22.0366 144.721 22.8385 143.673 22.8385C142.626 22.8385 141.776 22.0366 141.776 21.0474V12.5552C141.776 10.9416 140.386 9.62867 138.676 9.62867C136.967 9.62867 135.577 10.9414 135.577 12.5552V21.0474C135.577 22.0366 134.728 22.8385 133.68 22.8385C132.632 22.8385 131.783 22.0366 131.783 21.0474V7.83764C131.783 6.84846 132.632 6.04654 133.68 6.04654C134.359 6.04654 134.953 6.38437 135.288 6.89062C136.289 6.3544 137.446 6.04622 138.677 6.04622ZM162.883 0.000832872C163.93 0.000832872 164.779 0.802816 164.779 1.79194V21.0471C164.779 22.0363 163.93 22.8382 162.883 22.8382C161.93 22.8382 161.144 22.1746 161.008 21.3105C159.565 22.2715 157.807 22.8382 155.911 22.8382C151.02 22.8382 147.042 19.0818 147.042 14.4642C147.042 9.84668 151.02 6.09026 155.911 6.09026C157.797 6.09026 159.546 6.65092 160.986 7.6025V1.79128C160.986 0.802098 161.835 0.000832872 162.883 0.000832872ZM155.911 19.256C158.709 19.256 160.986 17.1066 160.986 14.4647C160.986 11.8229 158.709 9.67344 155.911 9.67344C153.113 9.67344 150.836 11.8229 150.836 14.4647C150.836 17.1066 153.113 19.256 155.911 19.256ZM168.103 6.04622C169.15 6.04622 170 6.8482 170 7.83732V21.0471C170 22.0363 169.15 22.8382 168.103 22.8382C167.055 22.8382 166.206 22.0363 166.206 21.0471V7.83732C166.206 6.84814 167.055 6.04622 168.103 6.04622ZM166.35 2.47706C166.303 2.36959 166.268 2.25537 166.244 2.14119C166.218 2.027 166.206 1.90832 166.206 1.79191C166.206 1.67549 166.218 1.55681 166.244 1.44262C166.268 1.32843 166.303 1.21425 166.35 1.10678C166.398 0.999315 166.457 0.894085 166.526 0.7978C166.594 0.699289 166.673 0.6075 166.76 0.524665C166.848 0.441831 166.946 0.367944 167.05 0.303013C167.152 0.238082 167.263 0.182105 167.377 0.137344C167.491 0.0925819 167.611 0.058998 167.732 0.0365978C168.349 -0.0820831 169.004 0.110484 169.444 0.524698C169.53 0.607532 169.611 0.699322 169.68 0.797833C169.749 0.894117 169.808 0.999348 169.855 1.10681C169.903 1.21428 169.938 1.32846 169.962 1.44265C169.988 1.55685 170 1.67552 170 1.79194C170 1.90835 169.988 2.02703 169.962 2.14122C169.938 2.25541 169.903 2.36959 169.855 2.47706C169.808 2.58452 169.749 2.68976 169.68 2.78604C169.611 2.88455 169.53 2.97634 169.444 3.05917C169.357 3.142 169.26 3.2159 169.156 3.28082C169.054 3.34576 168.942 3.40173 168.829 3.44649C168.715 3.49125 168.593 3.52484 168.472 3.54724C168.352 3.57187 168.226 3.58305 168.103 3.58305C167.98 3.58305 167.854 3.57187 167.732 3.54724C167.612 3.52484 167.491 3.49126 167.377 3.44649C167.263 3.40173 167.152 3.34575 167.05 3.28082C166.946 3.2159 166.848 3.142 166.76 3.05917C166.673 2.97634 166.594 2.88455 166.526 2.78604C166.457 2.68976 166.398 2.58452 166.35 2.47706Z" fill="#FCFCFE"/>
</svg>
