<svg width="24" height="24" viewBox="0 0 24 24" fill="none" xmlns="http://www.w3.org/2000/svg">
<path fill-rule="evenodd" clip-rule="evenodd" d="M8.70932 4.54406C8.45987 4.54406 8.23706 4.55377 8.03304 4.57928C8.02307 4.58053 8.01307 4.58158 8.00306 4.58243C6.75897 4.68881 5.93379 5.09705 5.40776 5.71579C4.87329 6.34446 4.55065 7.30403 4.55065 8.70272V12.8202C4.55065 14.8125 4.95595 15.7552 5.52039 16.2481C6.11076 16.7636 7.08014 16.9789 8.70932 16.9789H9.12106C9.39148 16.9789 9.64358 17.065 9.83343 17.161C10.0238 17.2571 10.236 17.4059 10.3931 17.6113L10.3975 17.6171L11.6338 19.2655C11.7841 19.4669 11.9256 19.5034 12.0033 19.5034C12.081 19.5034 12.2226 19.4669 12.3728 19.2655L12.3739 19.2641L13.6091 17.6171C13.9093 17.2168 14.3852 16.9789 14.8855 16.9789H15.2973C16.6972 16.9789 17.6566 16.6582 18.2847 16.1251C18.9027 15.6008 19.3111 14.7764 19.4175 13.5267C19.4184 13.5166 19.4195 13.5066 19.4207 13.4965C19.4463 13.2925 19.4559 13.0696 19.4559 12.8202V8.70272C19.4559 7.18049 19.0748 6.17856 18.4481 5.55189C17.8214 4.92522 16.8195 4.54406 15.2973 4.54406H8.70932ZM7.85675 3.04526C8.14182 3.01051 8.42849 3 8.70932 3H15.2973C17.0587 3 18.5222 3.44233 19.5399 4.46008C20.5577 5.47784 21 6.94126 21 8.70272V12.8202C21 13.101 20.9895 13.3877 20.9547 13.6727C20.8223 15.1955 20.2942 16.445 19.2838 17.3025C18.2804 18.1539 16.9134 18.5229 15.2973 18.5229H14.8855C14.8802 18.5229 14.8721 18.5243 14.8628 18.5289C14.8536 18.5335 14.8476 18.5393 14.8444 18.5435L13.6101 20.1891C13.215 20.7183 12.6408 21.0475 12.0033 21.0475C11.3658 21.0475 10.7922 20.7189 10.3969 20.1898L9.17731 18.5636C9.1685 18.557 9.15454 18.5478 9.13695 18.539C9.1211 18.5309 9.10757 18.5258 9.09845 18.5229H8.70932C7.0548 18.5229 5.55883 18.3316 4.50478 17.4111C3.42479 16.4681 3.00659 14.9453 3.00659 12.8202V8.70272C3.00659 7.08536 3.37877 5.71855 4.23138 4.71567C5.08966 3.70613 6.3385 3.17779 7.85675 3.04526Z" fill="#95A4B7"/>
</svg>
