<svg width="32" height="32" viewBox="0 0 32 32" fill="none" xmlns="http://www.w3.org/2000/svg">
<g clip-path="url(#clip0_287_13085)">
<path d="M10.6738 23.9895L8.00978 21.3255C7.03173 20.3475 7.03173 18.7559 8.00978 17.7777L17.7776 8.00991C18.7557 7.03185 20.3472 7.03185 21.3254 8.00991L23.9894 10.6739C24.9674 11.6519 24.9674 13.2435 23.9894 14.2217L14.2216 23.9895C13.2434 24.9676 11.6521 24.9677 10.6738 23.9895Z" fill="#FEDC33"/>
<path d="M20.8815 11.1181C20.6373 10.8741 20.2417 10.8741 19.9975 11.1181L19.5515 11.5641L19.1054 11.1181C18.8613 10.8741 18.4657 10.8741 18.2215 11.1181C17.9775 11.3621 17.9775 11.7579 18.2215 12.002L18.6676 12.448L17.7755 13.3401L17.3296 12.8941C17.0854 12.6501 16.6898 12.6501 16.4456 12.8941C16.2016 13.1382 16.2016 13.5339 16.4456 13.778L16.8916 14.224L15.9996 15.1161L15.5535 14.67C15.3094 14.426 14.9138 14.426 14.6696 14.67C14.4255 14.9141 14.4255 15.3098 14.6696 15.554L15.1156 16L14.2236 16.8921L13.7776 16.4461C13.5335 16.2021 13.1378 16.2021 12.8937 16.4461C12.6496 16.6901 12.6496 17.0859 12.8937 17.33L13.3397 17.776L12.4476 18.668L12.0015 18.222C11.7574 17.978 11.3618 17.978 11.1176 18.222C10.8736 18.466 10.8736 18.8618 11.1176 19.1059L11.5637 19.552L11.1176 19.998C10.8736 20.2421 10.8736 20.6378 11.1176 20.882C11.3619 21.126 11.7574 21.126 12.0015 20.882L12.4476 20.4359L12.8937 20.882C13.1378 21.126 13.5334 21.126 13.7776 20.882C14.0216 20.6379 14.0216 20.2422 13.7776 19.998L13.3315 19.552L14.2236 18.6599L14.6696 19.1059C14.9138 19.35 15.3093 19.3499 15.5535 19.1059C15.7976 18.8619 15.7976 18.4661 15.5535 18.222L15.1075 17.776L15.9996 16.8839L16.4456 17.33C16.6899 17.5741 17.0854 17.574 17.3296 17.33C17.5736 17.0859 17.5736 16.6902 17.3296 16.4461L16.8835 16L17.7755 15.108L18.2215 15.554C18.4657 15.7981 18.8613 15.7979 19.1054 15.554C19.3495 15.3099 19.3495 14.9141 19.1054 14.67L18.6594 14.224L19.5515 13.332L19.9975 13.778C20.2417 14.0222 20.6373 14.022 20.8815 13.778C21.1255 13.534 21.1255 13.1382 20.8815 12.8941L20.4354 12.448L20.8815 12.002C21.1255 11.7579 21.1255 11.3621 20.8815 11.1181Z" fill="#171717"/>
<path d="M31.2791 4.11189C30.8468 2.45203 29.5472 1.15242 27.8874 0.720173C20.4735 -1.21081 12.2894 0.747735 6.5186 6.51855C0.744973 12.2922 -1.20988 20.477 0.72016 27.8874C1.15241 29.5473 2.45202 30.8469 4.11181 31.2791C11.5261 33.2102 19.7098 31.2516 25.4806 25.4807C31.1236 19.8377 33.2537 11.6935 31.2791 4.11189ZM27.5723 1.92979C28.7944 2.2481 29.7511 3.20484 30.0694 4.42695C30.5814 6.3928 30.7961 8.39866 30.7316 10.3831L21.6168 1.26823C23.6852 1.20111 25.6767 1.4361 27.5723 1.92979ZM4.42687 30.0695C3.20476 29.7512 2.24802 28.7945 1.92971 27.5723C1.41772 25.6065 1.20303 23.6006 1.26753 21.6162L10.3824 30.7311C8.31471 30.7981 6.32254 30.5632 4.42687 30.0695ZM24.5967 24.5968C21.1811 28.0124 16.7161 30.0918 12.0317 30.6126L1.3859 19.9668C2.47633 10.1653 10.13 2.48072 19.9675 1.38673L30.6133 12.0325C30.0922 16.7165 28.012 21.1816 24.5967 24.5968Z" fill="#171717"/>
</g>
<defs>
<clipPath id="clip0_287_13085">
<rect width="32" height="32" fill="white"/>
</clipPath>
</defs>
</svg>
