<svg width="32" height="32" viewBox="0 0 32 32" fill="none" xmlns="http://www.w3.org/2000/svg">
<g clip-path="url(#clip0_291_13212)">
<path fill-rule="evenodd" clip-rule="evenodd" d="M12.1113 9.12456C15.0108 9.16794 17.9102 8.71243 20.8928 7.72543C22.742 7.11261 23.785 8.18818 23.5699 9.73551L22.4618 17.6566C22.1798 19.6793 21.5002 21.8594 20.4807 23.8224L20.5133 23.8242C26.2055 23.8242 30.0756 16.9697 30.8638 11.3316L31.9719 3.41058C32.1888 1.86326 31.144 0.787685 29.2948 1.4005C26.3122 2.38745 23.4127 2.84301 20.5133 2.79964C17.6156 2.84301 14.7143 2.38751 11.7318 1.4005C9.88255 0.787685 8.83955 1.86326 9.05467 3.41058L9.84461 9.05581C10.6019 9.11375 11.3557 9.13544 12.1113 9.12456Z" fill="#FEDC33"/>
<path d="M12.1113 30.7741C9.30253 30.7741 6.70288 29.2572 4.59343 26.3873C2.83297 23.9923 1.5749 20.8416 1.14177 17.7431L0.0337019 9.82205C-0.103299 8.83685 0.181391 7.96953 0.814771 7.44203C1.48415 6.88452 2.44722 6.7744 3.52635 7.13209C6.43644 8.09497 9.24196 8.54272 12.1019 8.49947C12.1082 8.49941 12.1144 8.49941 12.1206 8.49947C14.9829 8.54241 17.7863 8.09497 20.6964 7.13196C21.7756 6.7744 22.7384 6.88452 23.4078 7.44196C24.0411 7.96947 24.3258 8.83673 24.1889 9.82148L23.0808 17.7431C22.6476 20.8415 21.3896 23.9922 19.6291 26.3872C17.5197 29.2572 14.9201 30.7741 12.1113 30.7741ZM2.34216 8.17535C2.04447 8.17535 1.79634 8.25141 1.61478 8.4026C1.32065 8.64754 1.19559 9.10204 1.27171 9.64942L2.37966 17.57C2.7791 20.4271 3.98311 23.4465 5.6005 25.6469C6.90063 27.4157 9.08552 29.5241 12.1112 29.5241C15.1369 29.5241 17.3218 27.4157 18.622 25.6469C20.2394 23.4465 21.4434 20.4271 21.8428 17.57L22.9509 9.64892C23.0269 9.10204 22.9019 8.64754 22.6078 8.4026C22.2827 8.13178 21.7436 8.10197 21.0894 8.31872C18.0472 9.32542 15.1114 9.79336 12.1113 9.74961C9.11309 9.79355 6.17531 9.32542 3.13341 8.31878C2.84441 8.22297 2.57772 8.17535 2.34216 8.17535Z" fill="#171717"/>
<path d="M12.1113 26.9149C8.99774 26.9149 6.46466 24.3818 6.46466 21.2683C6.46466 20.6074 6.5776 19.961 6.80035 19.3469C6.89004 19.0997 7.12485 18.9351 7.38786 18.9351H7.38829C7.65148 18.9352 7.88636 19.1003 7.97567 19.3478C8.60218 21.0828 10.2641 22.2485 12.1112 22.2485C13.9583 22.2485 15.6202 21.0828 16.2467 19.3478C16.3361 19.1003 16.571 18.9352 16.8341 18.9351H16.8346C17.0976 18.9351 17.3324 19.0997 17.4221 19.3469C17.6448 19.961 17.7578 20.6074 17.7578 21.2683C17.7578 24.3818 15.2248 26.9149 12.1113 26.9149ZM7.71648 21.3968C7.78486 23.7618 9.73 25.6649 12.1112 25.6649C14.4924 25.6649 16.4376 23.7618 16.5059 21.3968C15.4525 22.6982 13.8453 23.4985 12.1112 23.4985C10.3771 23.4985 8.76999 22.6982 7.71648 21.3968Z" fill="#171717"/>
<path d="M10.4337 16.0092H4.45233C4.10721 16.0092 3.82733 15.7294 3.82733 15.3842C3.82733 13.39 5.44971 11.7676 7.44389 11.7676C9.43714 11.7676 11.0587 13.39 11.0587 15.3842C11.0587 15.7294 10.7788 16.0092 10.4337 16.0092ZM5.16102 14.7592H9.72502C9.45039 13.7565 8.53177 13.0176 7.44389 13.0176C6.35521 13.0176 5.43583 13.7565 5.16102 14.7592Z" fill="#171717"/>
<path d="M19.7702 16.0092H13.7888C13.4437 16.0092 13.1638 15.7294 13.1638 15.3842C13.1638 13.39 14.7862 11.7676 16.7804 11.7676C18.7736 11.7676 20.3952 13.39 20.3952 15.3842C20.3952 15.7294 20.1153 16.0092 19.7702 16.0092ZM14.4975 14.7592H19.0614C18.7868 13.7565 17.8682 13.0176 16.7803 13.0176C15.6917 13.0176 14.7723 13.7565 14.4975 14.7592Z" fill="#171717"/>
</g>
<defs>
<clipPath id="clip0_291_13212">
<rect width="32" height="32" fill="white"/>
</clipPath>
</defs>
</svg>
