<svg width="16" height="16" viewBox="0 0 16 16" fill="none" xmlns="http://www.w3.org/2000/svg">
<path d="M6.47237 12.9447C7.87794 12.9447 9.17409 12.4902 10.2346 11.7327L14.2241 15.7222C14.4092 15.9074 14.6533 16 14.9142 16C15.4613 16 15.8485 15.5791 15.8485 15.0405C15.8485 14.788 15.7643 14.5439 15.5791 14.3671L11.6149 10.3945C12.4482 9.30034 12.9447 7.94527 12.9447 6.47237C12.9447 2.91214 10.0326 0 6.47237 0C2.92056 0 0 2.90373 0 6.47237C0 10.0326 2.91214 12.9447 6.47237 12.9447ZM6.47237 11.5476C3.69489 11.5476 1.39716 9.24984 1.39716 6.47237C1.39716 3.69489 3.69489 1.39716 6.47237 1.39716C9.24984 1.39716 11.5476 3.69489 11.5476 6.47237C11.5476 9.24984 9.24984 11.5476 6.47237 11.5476Z" fill="#95A4B7"/>
</svg>
