<svg width="32" height="32" viewBox="0 0 32 32" fill="none" xmlns="http://www.w3.org/2000/svg">
<g clip-path="url(#clip0_291_13259)">
<path fill-rule="evenodd" clip-rule="evenodd" d="M9.97693 21.0058L9.48087 14.4792C9.30899 12.2186 7.69506 10.3407 5.45931 10.2061C4.45124 11.6481 3.93749 13.5579 3.99062 15.5616L9.97693 21.0058Z" fill="#FEDC33"/>
<path fill-rule="evenodd" clip-rule="evenodd" d="M21.6165 18.3499C20.3622 15.9848 20.2063 13.6391 19.8254 12.7285C18.5817 12.8277 17.2087 13.1413 15.8924 12.9305C14.5282 17.8839 18.5214 23.8685 21.6165 25.3672C22.5519 24.0084 24.118 23.1173 25.8932 23.1173C26.4229 23.1173 26.9349 23.1952 27.4167 23.3423C25.8347 22.7328 24.6158 21.9338 23.668 21.0463C22.7645 20.2012 22.1072 19.2746 21.6165 18.3499Z" fill="#FEDC33"/>
<path d="M30.0741 24.2463C29.5482 23.7106 28.9172 23.2805 28.2289 22.9815C28.0363 22.8978 27.8373 22.8349 27.6419 22.7594C22.2859 20.6914 21.3484 16.4524 20.7883 13.9197C20.6883 13.4677 20.6041 13.087 20.506 12.7759L26.7058 0.914563C26.8071 0.720813 26.7997 0.48825 26.6865 0.30125C26.5731 0.11425 26.3705 0 26.1518 0H15.1129C14.8802 0 14.6668 0.12925 14.559 0.3355L11.0488 7.051C9.12064 6.87337 7.39477 7.41025 6.0352 8.61712C4.4067 10.0627 3.42952 12.4231 3.36577 15.0122C2.50458 15.2211 1.7552 15.8467 1.43402 16.6743C1.05752 17.6444 1.33595 18.6526 2.19789 19.4404C2.20164 19.4438 2.20539 19.4471 2.2092 19.4505L6.43139 23.125H0.91864C0.573453 23.125 0.29364 23.4048 0.29364 23.75C0.29364 24.0952 0.573453 24.375 0.91864 24.375H7.86764L12.7612 28.6338C13.725 29.5092 14.844 30.2148 16.1112 30.7501H9.87595C9.53077 30.7501 9.25095 31.0299 9.25095 31.3751C9.25095 31.7203 9.53077 32.0001 9.87595 32.0001H23.0604H28.1219C29.2123 32.0001 30.1366 31.5949 30.7949 30.8284C31.3646 30.1651 31.688 29.2729 31.7055 28.3164C31.7336 26.7922 31.1543 25.3468 30.0741 24.2463ZM30.4234 27.6798H22.9841C22.4258 27.6798 21.893 27.6562 21.3838 27.6099C21.7153 25.4006 23.5966 23.7425 25.8931 23.7425C27.1227 23.7425 28.3215 24.2453 29.182 25.122C29.8783 25.8313 30.3071 26.7229 30.4234 27.6798ZM15.4914 1.25H25.12L19.4288 12.1383C19.1824 12.1638 18.9341 12.1942 18.6914 12.2242C16.1084 12.5441 13.6663 12.8463 12.0758 7.78425L15.4914 1.25ZM6.86495 9.55194C7.95533 8.584 9.35277 8.15287 10.9268 8.29475C11.7521 10.8443 12.9176 12.4367 14.4826 13.1563C15.9365 13.8249 17.4817 13.6336 18.845 13.4648C19.0295 13.4419 19.2088 13.4197 19.3843 13.4C19.4429 13.6253 19.5028 13.8962 19.5678 14.1896C19.6243 14.445 19.6868 14.7275 19.7597 15.0304H18.9041C18.559 15.0304 18.2791 15.3103 18.2791 15.6554C18.2791 16.0006 18.559 16.2804 18.9041 16.2804H20.0996C20.2427 16.7434 20.4151 17.2297 20.6273 17.7251H19.5525C19.2073 17.7251 18.9275 18.0049 18.9275 18.3501C18.9275 18.6953 19.2073 18.9751 19.5525 18.9751H21.2478C21.2787 19.0292 21.3102 19.0833 21.3423 19.1373C21.6116 19.59 21.9099 20.0181 22.2367 20.4214H21.3774C21.0322 20.4214 20.7524 20.7013 20.7524 21.0464C20.7524 21.3916 21.0322 21.6714 21.3774 21.6714H23.4318C23.8156 22.0137 24.2264 22.3313 24.664 22.6239C23.6053 22.8512 22.6286 23.37 21.8365 24.1421C20.9167 25.0386 20.3313 26.1916 20.1458 27.4429C18.3324 27.1115 16.8712 26.4298 15.7211 25.3833L4.61189 15.2816C4.61145 12.9406 5.44408 10.8132 6.86495 9.55194ZM28.1219 30.75H23.0604C19.003 30.75 15.819 29.7253 13.597 27.7043C13.5936 27.7012 13.5903 27.6981 13.5868 27.6951L3.03577 18.5128C2.56583 18.0808 2.41483 17.6016 2.5992 17.1266C2.78095 16.6582 3.26083 16.2905 3.76958 16.2053L14.88 26.3081C16.8189 28.0722 19.4698 28.9298 22.9841 28.9298H30.3775C30.151 29.9102 29.4261 30.75 28.1219 30.75Z" fill="#171717"/>
<path d="M2.80015 26.9375H1.57953C1.23434 26.9375 0.954529 27.2173 0.954529 27.5625C0.954529 27.9077 1.23434 28.1875 1.57953 28.1875H2.80015C3.14534 28.1875 3.42515 27.9077 3.42515 27.5625C3.42515 27.2173 3.14534 26.9375 2.80015 26.9375Z" fill="#171717"/>
<path d="M8.15393 26.9375H5.29987C4.95468 26.9375 4.67487 27.2173 4.67487 27.5625C4.67487 27.9077 4.95468 28.1875 5.29987 28.1875H8.15399C8.49918 28.1875 8.77899 27.9077 8.77899 27.5625C8.77899 27.2173 8.49912 26.9375 8.15393 26.9375Z" fill="#171717"/>
<path d="M6.12546 30.75H4.16071C3.81552 30.75 3.53571 31.0298 3.53571 31.375C3.53571 31.7202 3.81552 32 4.16071 32H6.12546C6.47064 32 6.75046 31.7202 6.75046 31.375C6.75046 31.0298 6.47064 30.75 6.12546 30.75Z" fill="#171717"/>
</g>
<defs>
<clipPath id="clip0_291_13259">
<rect width="32" height="32" fill="white"/>
</clipPath>
</defs>
</svg>
