<svg width="32" height="32" viewBox="0 0 32 32" fill="none" xmlns="http://www.w3.org/2000/svg">
<g clip-path="url(#clip0_293_13344)">
<path fill-rule="evenodd" clip-rule="evenodd" d="M12.6566 20.1463V11.8555L19.5449 16.0008L12.6566 20.1463Z" fill="#FEDC33"/>
<path fill-rule="evenodd" clip-rule="evenodd" d="M12.7816 19.9251V12.0764L19.3025 16.0007L12.7816 19.9251ZM21.1431 15.3582L12.4187 10.1071C12.3049 10.0386 12.1749 10.0016 12.0421 9.99982C11.9092 9.99805 11.7783 10.0316 11.6627 10.097C11.547 10.1624 11.4508 10.2573 11.3839 10.372C11.317 10.4868 11.2817 10.6173 11.2817 10.7501V21.2519C11.2817 21.3848 11.3169 21.5153 11.3839 21.63C11.4508 21.7448 11.547 21.8397 11.6627 21.905C11.7784 21.9704 11.9093 22.0039 12.0422 22.002C12.175 22.0002 12.305 21.9631 12.4187 21.8945L21.1431 16.6432C21.2541 16.5767 21.3459 16.4825 21.4097 16.3699C21.4734 16.2573 21.5069 16.1301 21.5069 16.0007C21.5069 15.8714 21.4734 15.7442 21.4097 15.6316C21.3459 15.519 21.2541 15.4248 21.1431 15.3582H21.1431ZM29.2606 26.2702C29.5891 26.2698 29.9041 26.1391 30.1364 25.9068C30.3688 25.6744 30.4995 25.3595 30.5 25.0309V6.97093C30.4996 6.64241 30.3689 6.32747 30.1365 6.09519C29.9042 5.86292 29.5892 5.73228 29.2607 5.73193H2.73925C2.41074 5.73231 2.09579 5.86297 1.86348 6.09523C1.63116 6.3275 1.50045 6.64242 1.5 6.97093V25.0309C1.50048 25.3595 1.63121 25.6744 1.86352 25.9067C2.09583 26.139 2.41078 26.2697 2.73931 26.2702H29.2606ZM29.2606 4.23193H2.73925C2.01305 4.23274 1.31682 4.52157 0.803291 5.03505C0.289765 5.54853 0.000876744 6.24473 0 6.97093V25.0309C0.000942655 25.7571 0.289853 26.4534 0.803371 26.9669C1.31689 27.4804 2.0131 27.7693 2.73931 27.7702H29.2606C29.9868 27.7693 30.6831 27.4805 31.1966 26.967C31.7102 26.4534 31.9991 25.7572 32 25.0309V6.97093C31.9992 6.24468 31.7103 5.54842 31.1967 5.03493C30.6831 4.52143 29.9868 4.23264 29.2606 4.23193Z" fill="#171717"/>
</g>
<defs>
<clipPath id="clip0_293_13344">
<rect width="32" height="32" fill="white"/>
</clipPath>
</defs>
</svg>
