<svg width="28" height="28" viewBox="0 0 28 28" fill="none" xmlns="http://www.w3.org/2000/svg">
<path d="M22.8807 6.31677C22.3676 5.79359 21.7583 5.37856 21.0878 5.0954C20.4172 4.81225 19.6985 4.6665 18.9727 4.6665C18.2468 4.6665 17.5281 4.81225 16.8576 5.0954C16.187 5.37856 15.5778 5.79359 15.0646 6.31677L13.9997 7.40205L12.9348 6.31677C11.8983 5.26047 10.4926 4.66705 9.02679 4.66705C7.56099 4.66705 6.15523 5.26047 5.11876 6.31677C4.08229 7.37307 3.5 8.80572 3.5 10.2996C3.5 11.7934 4.08229 13.226 5.11876 14.2823L6.18367 15.3676L13.9997 23.3332L21.8158 15.3676L22.8807 14.2823C23.3941 13.7594 23.8013 13.1385 24.0791 12.4551C24.357 11.7717 24.5 11.0393 24.5 10.2996C24.5 9.55983 24.357 8.82736 24.0791 8.14398C23.8013 7.4606 23.3941 6.83971 22.8807 6.31677V6.31677Z" stroke="#95A4B7" stroke-width="2" stroke-linecap="round" stroke-linejoin="round"/>
</svg>
